<svg width="100" height="100" viewBox="0 0 100 100" fill="none" xmlns="http://www.w3.org/2000/svg">
<path d="M87.5 45.8333C87.5 50 83.3333 54.1667 79.1667 54.1667H20.8333C16.6667 54.1667 12.5 50 12.5 45.8333V45.8333C12.5 31.25 25 20.8333 39.5833 20.8333H60.4167C75 20.8333 87.5 31.25 87.5 45.8333V45.8333Z" fill="#E99856"/>
<rect x="12.5" y="54.1667" width="75" height="12.5" rx="4" fill="#6A1C0B"/>
<path d="M12.5 66.6667H87.5V70.8333C87.5 75 83.3333 79.1667 79.1667 79.1667H20.8333C16.6667 79.1667 12.5 75 12.5 70.8333V66.6667Z" fill="#F28D34"/>
<circle cx="25" cy="35.4167" r="2.08333" fill="white"/>
<circle cx="35.4167" cy="31.25" r="2.08333" fill="white"/>
<circle cx="45.8333" cy="35.4167" r="2.08333" fill="white"/>
<circle cx="56.25" cy="31.25" r="2.08333" fill="white"/>
<circle cx="66.6667" cy="35.4167" r="2.08333" fill="white"/>
<circle cx="77.0833" cy="31.25" r="2.08333" fill="white"/>
</svg>
